<?xml version="1.0" standalone="no"?>
<!DOCTYPE svg PUBLIC "-//W3C//DTD SVG 20010904//EN" "http://www.w3.org/TR/2001/REC-SVG-20010904/DTD/svg10.dtd">
<svg version="1.0" xmlns="http://www.w3.org/2000/svg" width="692.000000pt" height="692.000000pt"
    viewBox="0 0 692.000000 692.000000" preserveAspectRatio="xMidYMid meet" style="background-color: #fff;">

    <g transform="translate(0.000000,692.000000) scale(0.100000,-0.100000)" fill="#000000" stroke="none">
        <path d="M0 3460 l0 -3460 3460 0 3460 0 0 3460 0 3460 -3460 0 -3460 0 0
-3460z m6100 2260 c36 -36 25 -62 -67 -173 -82 -97 -169 -204 -275 -337 -146
-184 -309 -419 -343 -493 -14 -29 -34 -62 -45 -72 -49 -45 -130 -4 -130 66 0
44 25 79 321 449 107 135 248 315 314 400 65 85 125 161 134 168 23 18 68 15
91 -8z m-1847 -393 c27 -29 92 -122 144 -207 213 -343 435 -640 645 -866 l58
-61 50 24 c35 17 73 25 123 28 40 1 91 10 115 19 64 23 237 55 371 67 269 24
447 -32 548 -173 139 -193 94 -518 -116 -845 -28 -44 -51 -85 -51 -91 0 -6 25
-46 56 -89 31 -43 78 -123 104 -178 69 -145 87 -233 69 -331 -32 -172 -166
-307 -434 -434 -143 -67 -236 -103 -690 -265 -159 -56 -326 -116 -370 -132
l-80 -29 -12 -94 c-26 -193 -87 -301 -205 -359 -136 -68 -310 -28 -479 110
l-47 38 -90 -39 c-49 -21 -118 -53 -152 -70 -71 -36 -100 -32 -122 14 -19 43
7 66 138 120 66 27 125 54 131 59 9 7 7 17 -12 41 -41 54 -112 217 -131 301
-10 44 -21 84 -25 88 -3 5 -34 -6 -69 -23 -82 -41 -197 -85 -295 -113 -60 -16
-107 -22 -185 -22 -93 0 -110 3 -150 25 -62 35 -90 80 -90 144 0 83 46 127
110 105 35 -13 50 -35 50 -77 0 -46 22 -57 109 -56 165 3 456 118 525 208 16
22 38 37 58 41 47 10 144 107 174 173 37 82 85 91 154 28 61 -56 65 -58 93
-45 15 7 41 9 61 5 28 -5 38 -14 53 -45 17 -36 23 -39 90 -56 40 -10 75 -16
78 -13 3 3 -2 21 -10 41 -20 48 -19 70 3 98 23 28 73 30 102 4 11 -10 31 -52
44 -94 l24 -76 119 0 c95 1 132 5 187 24 86 28 179 74 230 114 49 39 100 42
127 8 41 -51 19 -92 -81 -152 -136 -81 -278 -123 -454 -135 -95 -7 -96 -7 -89
-32 3 -13 11 -61 18 -106 9 -60 15 -80 26 -78 17 3 354 128 631 233 400 152
563 236 692 358 84 81 110 136 110 236 0 65 -6 93 -29 150 -37 91 -85 174
-153 265 -2 3 -37 -30 -78 -73 -50 -54 -77 -90 -84 -117 -11 -42 -33 -60 -74
-60 -16 0 -57 -23 -106 -59 -223 -165 -490 -291 -718 -336 -128 -26 -332 -17
-430 17 -104 37 -176 83 -252 159 -81 82 -149 195 -192 319 -32 93 -33 99 -33
265 0 166 1 172 33 265 18 52 49 124 69 160 111 203 347 419 626 574 37 21 67
42 67 47 0 5 -17 28 -38 52 -121 133 -320 389 -488 627 -60 85 -146 194 -191
242 -46 48 -83 94 -83 102 0 52 58 102 105 90 11 -3 42 -29 68 -57z m-1888
-182 c14 -13 25 -31 25 -40 0 -14 4 -13 26 4 33 26 85 27 112 4 13 -11 31 -54
48 -113 90 -318 326 -817 537 -1135 51 -77 132 -189 158 -219 4 -4 22 3 41 17
41 31 141 74 323 139 77 27 152 54 168 60 23 8 27 16 27 48 0 69 21 191 70
415 69 312 116 555 130 665 16 135 17 138 50 155 30 16 53 12 83 -13 32 -28
22 -96 -67 -492 -110 -490 -130 -636 -100 -750 29 -115 28 -116 -264 -210
-157 -50 -251 -94 -310 -144 -51 -42 -96 -48 -130 -16 -12 12 -22 25 -22 30 0
5 -21 7 -47 4 -27 -3 -53 -1 -58 3 -38 30 -192 273 -308 488 -136 252 -466
956 -467 997 0 7 -11 -6 -23 -28 -12 -23 -60 -89 -107 -148 -47 -59 -100 -128
-118 -154 -324 -463 -620 -951 -794 -1308 -57 -117 -72 -157 -78 -212 -8 -79
-39 -156 -68 -171 -57 -31 -132 8 -132 67 0 118 276 603 880 1546 123 191 238
383 256 425 18 42 43 84 55 94 31 25 75 22 104 -8z m4218 -123 c18 -16 23 -67
9 -90 -5 -6 -60 -39 -123 -73 -166 -88 -312 -177 -377 -229 -47 -38 -60 -55
-75 -100 -31 -97 -92 -126 -148 -71 -33 33 -36 58 -13 124 18 54 69 109 150
164 63 43 479 287 504 296 20 7 51 -2 73 -21z m-5775 -318 c245 -42 513 -116
646 -180 86 -40 104 -94 53 -151 -30 -33 -82 -30 -131 7 -113 86 -453 179
-761 209 -79 8 -92 12 -112 36 -30 34 -29 60 3 92 24 24 30 25 90 19 35 -4
131 -18 212 -32z m226 -897 c51 -34 45 -110 -12 -138 -28 -15 -39 -15 -95 -3
-34 7 -96 13 -137 13 -75 0 -112 -5 -247 -30 -71 -13 -73 -12 -97 10 -31 30
-36 51 -20 89 9 22 23 34 51 42 137 40 504 51 557 17z m1446 -377 c374 3 520
-37 668 -181 64 -63 85 -110 90 -205 8 -149 -64 -345 -205 -556 -170 -254
-434 -520 -705 -712 -53 -37 -68 -53 -68 -72 0 -14 -12 -36 -26 -51 -22 -22
-31 -24 -69 -18 -40 6 -53 2 -128 -39 -140 -77 -316 -145 -442 -172 -38 -8
-115 -15 -170 -15 -162 1 -270 43 -370 145 -62 63 -120 166 -146 256 l-12 45
-8 -40 c-20 -101 0 -247 46 -341 28 -58 117 -147 187 -188 73 -42 206 -84 330
-102 316 -47 782 50 1231 255 46 22 75 29 92 25 49 -12 62 -82 20 -110 -66
-43 -417 -163 -640 -218 -265 -66 -376 -79 -597 -74 -155 4 -198 9 -279 31
-159 42 -300 117 -381 203 -44 47 -97 144 -120 219 -31 99 -30 291 2 425 76
320 304 743 482 895 201 171 253 213 343 274 270 183 575 339 635 324 14 -3
122 -5 240 -3z" />
        <path d="M5647 4180 c-148 -27 -151 -30 -83 -69 63 -35 114 -103 140 -186 8
-27 41 -129 72 -226 l57 -177 113 -106 114 -107 33 53 c112 175 173 370 165
526 -8 149 -56 225 -177 280 -79 35 -276 41 -434 12z" />
        <path d="M5884 3211 c3 -52 9 -97 12 -100 7 -7 73 70 74 87 0 7 -21 34 -46 60
l-46 47 6 -94z" />
        <path d="M4080 2197 c-25 -23 -65 -58 -89 -78 l-45 -36 2 -74 c1 -41 8 -101
17 -134 17 -68 83 -206 119 -249 l24 -28 153 61 c85 33 206 80 269 105 113 43
115 44 118 77 4 35 -25 214 -38 238 -9 17 -221 72 -233 62 -4 -4 2 -60 13
-125 21 -125 19 -141 -22 -170 -32 -23 -54 -20 -87 12 -28 25 -31 37 -46 142
-8 63 -15 134 -15 157 0 38 -4 46 -32 63 -46 28 -57 25 -108 -23z" />
        <path d="M4465 1634 c-88 -36 -184 -75 -213 -86 -29 -12 -51 -26 -49 -32 2 -6
37 -28 79 -50 124 -63 212 -60 282 10 52 52 110 224 75 224 -8 0 -86 -30 -174
-66z" />
        <path d="M1813 3111 c-109 -63 -198 -123 -304 -207 -99 -79 -99 -79 -93 -127
8 -56 -22 -97 -71 -97 -27 0 -42 -9 -84 -55 -56 -63 -146 -194 -185 -271 -62
-124 -87 -356 -51 -488 73 -276 288 -389 601 -316 123 29 374 131 374 153 0 5
-20 32 -45 58 -63 68 -110 169 -131 286 -14 81 -16 134 -11 352 8 323 33 525
89 699 11 35 18 65 16 67 -2 2 -49 -22 -105 -54z" />
    </g>
</svg>